<svg width="20" height="20" viewBox="0 0 20 20" fill="none" xmlns="http://www.w3.org/2000/svg">
<mask id="path-1-outside-1_1_108" maskUnits="userSpaceOnUse" x="1" y="1" width="17" height="18" fill="black">
<rect fill="white" x="1" y="1" width="17" height="18"/>
<path d="M7.01177 3.12281H3.67059C3.36432 3.12281 3.11373 3.37544 3.11373 3.68421V7.05263C3.11373 7.3614 3.36432 7.61404 3.67059 7.61404H7.01177C7.31805 7.61404 7.56864 7.3614 7.56864 7.05263V3.68421C7.56864 3.37544 7.31805 3.12281 7.01177 3.12281ZM3.67059 2H7.01177C7.93408 2 8.68237 2.75439 8.68237 3.68421V7.05263C8.68237 7.98246 7.93408 8.73684 7.01177 8.73684H3.67059C2.74829 8.73684 2 7.98246 2 7.05263V3.68421C2 2.75439 2.74829 2 3.67059 2ZM7.01177 12.1053H3.67059C3.36432 12.1053 3.11373 12.3579 3.11373 12.6667V16.0351C3.11373 16.3439 3.36432 16.5965 3.67059 16.5965H7.01177C7.31805 16.5965 7.56864 16.3439 7.56864 16.0351V12.6667C7.56864 12.3579 7.31805 12.1053 7.01177 12.1053ZM3.67059 10.9825H7.01177C7.93408 10.9825 8.68237 11.7368 8.68237 12.6667V16.0351C8.68237 16.9649 7.93408 17.7193 7.01177 17.7193H3.67059C2.74829 17.7193 2 16.9649 2 16.0351V12.6667C2 11.7368 2.74829 10.9825 3.67059 10.9825ZM12.5804 3.12281C12.2741 3.12281 12.0235 3.37544 12.0235 3.68421V7.05263C12.0235 7.3614 12.2741 7.61404 12.5804 7.61404H15.9216C16.2279 7.61404 16.4785 7.3614 16.4785 7.05263V3.68421C16.4785 3.37544 16.2279 3.12281 15.9216 3.12281H12.5804ZM10.9098 3.68421C10.9098 2.75439 11.6581 2 12.5804 2H15.9216C16.8439 2 17.5922 2.75439 17.5922 3.68421V7.05263C17.5922 7.98246 16.8439 8.73684 15.9216 8.73684H12.5804C11.6581 8.73684 10.9098 7.98246 10.9098 7.05263V3.68421ZM10.9098 11.5439C10.9098 11.2351 11.1604 10.9825 11.4667 10.9825H13.6941C14.0004 10.9825 14.251 11.2351 14.251 11.5439V13.9298H16.4785V11.5439C16.4785 11.2351 16.729 10.9825 17.0353 10.9825C17.3416 10.9825 17.5922 11.2351 17.5922 11.5439V14.4912C17.5922 14.8 17.3416 15.0526 17.0353 15.0526H13.6941C13.3879 15.0526 13.1373 14.8 13.1373 14.4912V12.1053H12.0235V17.4386C12.0235 17.7474 11.773 18 11.4667 18C11.1604 18 10.9098 17.7474 10.9098 17.4386V11.5439ZM5.06275 4.52632H5.61962C5.92589 4.52632 6.17648 4.77895 6.17648 5.08772V5.64912C6.17648 5.95789 5.92589 6.21053 5.61962 6.21053H5.06275C4.75648 6.21053 4.50589 5.95789 4.50589 5.64912V5.08772C4.50589 4.77895 4.75648 4.52632 5.06275 4.52632ZM4.50589 14.0702C4.50589 13.7614 4.75648 13.5088 5.06275 13.5088H5.61962C5.92589 13.5088 6.17648 13.7614 6.17648 14.0702V14.6316C6.17648 14.9404 5.92589 15.193 5.61962 15.193H5.06275C4.75648 15.193 4.50589 14.9404 4.50589 14.6316V14.0702ZM13.9726 4.52632H14.5294C14.8357 4.52632 15.0863 4.77895 15.0863 5.08772V5.64912C15.0863 5.95789 14.8357 6.21053 14.5294 6.21053H13.9726C13.6663 6.21053 13.4157 5.95789 13.4157 5.64912V5.08772C13.4157 4.77895 13.6663 4.52632 13.9726 4.52632ZM13.1373 16.5965C13.1373 16.2877 13.3879 16.0351 13.6941 16.0351H14.251C14.5573 16.0351 14.8079 16.2877 14.8079 16.5965V17.1579C14.8079 17.4667 14.5573 17.7193 14.251 17.7193H13.6941C13.3879 17.7193 13.1373 17.4667 13.1373 17.1579V16.5965ZM16.4785 16.0351H17.0353C17.3416 16.0351 17.5922 16.2877 17.5922 16.5965V17.1579C17.5922 17.4667 17.3416 17.7193 17.0353 17.7193H16.4785C16.1722 17.7193 15.9216 17.4667 15.9216 17.1579V16.5965C15.9216 16.2877 16.1722 16.0351 16.4785 16.0351Z"/>
</mask>
<path d="M7.01177 3.12281H3.67059C3.36432 3.12281 3.11373 3.37544 3.11373 3.68421V7.05263C3.11373 7.3614 3.36432 7.61404 3.67059 7.61404H7.01177C7.31805 7.61404 7.56864 7.3614 7.56864 7.05263V3.68421C7.56864 3.37544 7.31805 3.12281 7.01177 3.12281ZM3.67059 2H7.01177C7.93408 2 8.68237 2.75439 8.68237 3.68421V7.05263C8.68237 7.98246 7.93408 8.73684 7.01177 8.73684H3.67059C2.74829 8.73684 2 7.98246 2 7.05263V3.68421C2 2.75439 2.74829 2 3.67059 2ZM7.01177 12.1053H3.67059C3.36432 12.1053 3.11373 12.3579 3.11373 12.6667V16.0351C3.11373 16.3439 3.36432 16.5965 3.67059 16.5965H7.01177C7.31805 16.5965 7.56864 16.3439 7.56864 16.0351V12.6667C7.56864 12.3579 7.31805 12.1053 7.01177 12.1053ZM3.67059 10.9825H7.01177C7.93408 10.9825 8.68237 11.7368 8.68237 12.6667V16.0351C8.68237 16.9649 7.93408 17.7193 7.01177 17.7193H3.67059C2.74829 17.7193 2 16.9649 2 16.0351V12.6667C2 11.7368 2.74829 10.9825 3.67059 10.9825ZM12.5804 3.12281C12.2741 3.12281 12.0235 3.37544 12.0235 3.68421V7.05263C12.0235 7.3614 12.2741 7.61404 12.5804 7.61404H15.9216C16.2279 7.61404 16.4785 7.3614 16.4785 7.05263V3.68421C16.4785 3.37544 16.2279 3.12281 15.9216 3.12281H12.5804ZM10.9098 3.68421C10.9098 2.75439 11.6581 2 12.5804 2H15.9216C16.8439 2 17.5922 2.75439 17.5922 3.68421V7.05263C17.5922 7.98246 16.8439 8.73684 15.9216 8.73684H12.5804C11.6581 8.73684 10.9098 7.98246 10.9098 7.05263V3.68421ZM10.9098 11.5439C10.9098 11.2351 11.1604 10.9825 11.4667 10.9825H13.6941C14.0004 10.9825 14.251 11.2351 14.251 11.5439V13.9298H16.4785V11.5439C16.4785 11.2351 16.729 10.9825 17.0353 10.9825C17.3416 10.9825 17.5922 11.2351 17.5922 11.5439V14.4912C17.5922 14.8 17.3416 15.0526 17.0353 15.0526H13.6941C13.3879 15.0526 13.1373 14.8 13.1373 14.4912V12.1053H12.0235V17.4386C12.0235 17.7474 11.773 18 11.4667 18C11.1604 18 10.9098 17.7474 10.9098 17.4386V11.5439ZM5.06275 4.52632H5.61962C5.92589 4.52632 6.17648 4.77895 6.17648 5.08772V5.64912C6.17648 5.95789 5.92589 6.21053 5.61962 6.21053H5.06275C4.75648 6.21053 4.50589 5.95789 4.50589 5.64912V5.08772C4.50589 4.77895 4.75648 4.52632 5.06275 4.52632ZM4.50589 14.0702C4.50589 13.7614 4.75648 13.5088 5.06275 13.5088H5.61962C5.92589 13.5088 6.17648 13.7614 6.17648 14.0702V14.6316C6.17648 14.9404 5.92589 15.193 5.61962 15.193H5.06275C4.75648 15.193 4.50589 14.9404 4.50589 14.6316V14.0702ZM13.9726 4.52632H14.5294C14.8357 4.52632 15.0863 4.77895 15.0863 5.08772V5.64912C15.0863 5.95789 14.8357 6.21053 14.5294 6.21053H13.9726C13.6663 6.21053 13.4157 5.95789 13.4157 5.64912V5.08772C13.4157 4.77895 13.6663 4.52632 13.9726 4.52632ZM13.1373 16.5965C13.1373 16.2877 13.3879 16.0351 13.6941 16.0351H14.251C14.5573 16.0351 14.8079 16.2877 14.8079 16.5965V17.1579C14.8079 17.4667 14.5573 17.7193 14.251 17.7193H13.6941C13.3879 17.7193 13.1373 17.4667 13.1373 17.1579V16.5965ZM16.4785 16.0351H17.0353C17.3416 16.0351 17.5922 16.2877 17.5922 16.5965V17.1579C17.5922 17.4667 17.3416 17.7193 17.0353 17.7193H16.4785C16.1722 17.7193 15.9216 17.4667 15.9216 17.1579V16.5965C15.9216 16.2877 16.1722 16.0351 16.4785 16.0351Z" fill="#0866FF"/>
<path d="M7.01177 3.12281H3.67059C3.36432 3.12281 3.11373 3.37544 3.11373 3.68421V7.05263C3.11373 7.3614 3.36432 7.61404 3.67059 7.61404H7.01177C7.31805 7.61404 7.56864 7.3614 7.56864 7.05263V3.68421C7.56864 3.37544 7.31805 3.12281 7.01177 3.12281ZM3.67059 2H7.01177C7.93408 2 8.68237 2.75439 8.68237 3.68421V7.05263C8.68237 7.98246 7.93408 8.73684 7.01177 8.73684H3.67059C2.74829 8.73684 2 7.98246 2 7.05263V3.68421C2 2.75439 2.74829 2 3.67059 2ZM7.01177 12.1053H3.67059C3.36432 12.1053 3.11373 12.3579 3.11373 12.6667V16.0351C3.11373 16.3439 3.36432 16.5965 3.67059 16.5965H7.01177C7.31805 16.5965 7.56864 16.3439 7.56864 16.0351V12.6667C7.56864 12.3579 7.31805 12.1053 7.01177 12.1053ZM3.67059 10.9825H7.01177C7.93408 10.9825 8.68237 11.7368 8.68237 12.6667V16.0351C8.68237 16.9649 7.93408 17.7193 7.01177 17.7193H3.67059C2.74829 17.7193 2 16.9649 2 16.0351V12.6667C2 11.7368 2.74829 10.9825 3.67059 10.9825ZM12.5804 3.12281C12.2741 3.12281 12.0235 3.37544 12.0235 3.68421V7.05263C12.0235 7.3614 12.2741 7.61404 12.5804 7.61404H15.9216C16.2279 7.61404 16.4785 7.3614 16.4785 7.05263V3.68421C16.4785 3.37544 16.2279 3.12281 15.9216 3.12281H12.5804ZM10.9098 3.68421C10.9098 2.75439 11.6581 2 12.5804 2H15.9216C16.8439 2 17.5922 2.75439 17.5922 3.68421V7.05263C17.5922 7.98246 16.8439 8.73684 15.9216 8.73684H12.5804C11.6581 8.73684 10.9098 7.98246 10.9098 7.05263V3.68421ZM10.9098 11.5439C10.9098 11.2351 11.1604 10.9825 11.4667 10.9825H13.6941C14.0004 10.9825 14.251 11.2351 14.251 11.5439V13.9298H16.4785V11.5439C16.4785 11.2351 16.729 10.9825 17.0353 10.9825C17.3416 10.9825 17.5922 11.2351 17.5922 11.5439V14.4912C17.5922 14.8 17.3416 15.0526 17.0353 15.0526H13.6941C13.3879 15.0526 13.1373 14.8 13.1373 14.4912V12.1053H12.0235V17.4386C12.0235 17.7474 11.773 18 11.4667 18C11.1604 18 10.9098 17.7474 10.9098 17.4386V11.5439ZM5.06275 4.52632H5.61962C5.92589 4.52632 6.17648 4.77895 6.17648 5.08772V5.64912C6.17648 5.95789 5.92589 6.21053 5.61962 6.21053H5.06275C4.75648 6.21053 4.50589 5.95789 4.50589 5.64912V5.08772C4.50589 4.77895 4.75648 4.52632 5.06275 4.52632ZM4.50589 14.0702C4.50589 13.7614 4.75648 13.5088 5.06275 13.5088H5.61962C5.92589 13.5088 6.17648 13.7614 6.17648 14.0702V14.6316C6.17648 14.9404 5.92589 15.193 5.61962 15.193H5.06275C4.75648 15.193 4.50589 14.9404 4.50589 14.6316V14.0702ZM13.9726 4.52632H14.5294C14.8357 4.52632 15.0863 4.77895 15.0863 5.08772V5.64912C15.0863 5.95789 14.8357 6.21053 14.5294 6.21053H13.9726C13.6663 6.21053 13.4157 5.95789 13.4157 5.64912V5.08772C13.4157 4.77895 13.6663 4.52632 13.9726 4.52632ZM13.1373 16.5965C13.1373 16.2877 13.3879 16.0351 13.6941 16.0351H14.251C14.5573 16.0351 14.8079 16.2877 14.8079 16.5965V17.1579C14.8079 17.4667 14.5573 17.7193 14.251 17.7193H13.6941C13.3879 17.7193 13.1373 17.4667 13.1373 17.1579V16.5965ZM16.4785 16.0351H17.0353C17.3416 16.0351 17.5922 16.2877 17.5922 16.5965V17.1579C17.5922 17.4667 17.3416 17.7193 17.0353 17.7193H16.4785C16.1722 17.7193 15.9216 17.4667 15.9216 17.1579V16.5965C15.9216 16.2877 16.1722 16.0351 16.4785 16.0351Z" stroke="#0866FF" stroke-width="0.4" mask="url(#path-1-outside-1_1_108)"/>
</svg>
